<?xml version="1.0" encoding="iso-8859-1"?>
<!-- Generator: Adobe Illustrator 16.0.0, SVG Export Plug-In . SVG Version: 6.00 Build 0)  -->
<!DOCTYPE svg PUBLIC "-//W3C//DTD SVG 1.1//EN" "http://www.w3.org/Graphics/SVG/1.1/DTD/svg11.dtd">
<svg version="1.1" id="Capa_1" xmlns="http://www.w3.org/2000/svg" xmlns:xlink="http://www.w3.org/1999/xlink" x="0px" y="0px"
	 width="799.4px" height="799.4px" viewBox="0 0 799.4 799.4" style="enable-background:new 0 0 799.4 799.4;" xml:space="preserve"
	>
<g>
	<circle cx="383.1" cy="458.9" r="15"/>
	<g>
		<path d="M232.2,641.7L232.2,641.7L232.2,641.7c-0.2-1.1-0.4-2.1-0.8-3.1c-2.6-9.801-8.4-27.7-11-35.7c-0.3-1.4-0.8-2.7-1.3-4l0,0
			l0,0c-1.6-3.5-4.3-6.4-7.5-8.3l0,0c-0.2-0.101-0.6-0.4-1.2-0.601c-0.2-0.1-0.4-0.2-0.7-0.3c-6.4-3-26.1-10.9-26.1-10.9l0,0
			c-9.9-4.3-20.1-7.899-30.5-11.6l0,0l0,0l0,0l0,0c-1.9,7.8-19.5,59.2-22.3,66.3l-2.2-47.8c0.7-1.1,1.3-2.4,1.8-3.7l7.4-14.6
			c-5.2,4.3-13,7.1-21.7,7.1c-8.5,0-16.1-2.6-21.3-6.8L102,582c0.6,1.2,1.1,2.5,1.8,3.7l-2.2,47.8c-2.8-7.1-20.5-58.5-22.3-66.3l0,0
			l0,0l0,0l0,0c-10.4,3.7-20.6,7.4-30.5,11.6l0,0c0,0-19.7,7.9-26.1,10.9c-0.2,0.1-0.4,0.2-0.7,0.3c-0.6,0.3-1,0.5-1.2,0.601l0,0
			c-3.3,2-5.9,4.899-7.5,8.3l0,0l0,0c-0.6,1.3-1,2.6-1.3,4c-2.6,8-8.5,25.899-11,35.7c-0.3,1-0.6,2.1-0.8,3.1l0,0l0,0
			c-0.1,0.9-0.2,1.9-0.2,2.9c0,10.5,8.5,19,19,19h18.2c26,0,52,0,78,0c0.3,0,0.7,0,1,0l0,0c0.3,0,0.7,0,1,0c26,0,52,0,78,0h18.2
			c10.5,0,19-8.5,19-19C232.4,643.601,232.3,642.601,232.2,641.7z"/>
		<path d="M165.8,478.601c0-3.4,0.7-15.601,0.7-18.301c0-27.199-22.1-49.3-49.3-49.3l0,0l0,0h-0.1H117l0,0l0,0c-0.3,0-0.6,0-0.9,0
			s-0.6,0-0.9,0l0,0l0,0h-0.1H115l0,0l0,0c-27.2,0-49.3,22.101-49.3,49.3c0,2.801,0.7,15,0.7,18.301c-1.2,0-12.2-2.601-11,10.6
			c2.5,28,13.2,22.6,13.5,22.6c5.3,16.9,13.4,27.7,21.4,34.5c12.5,10.7,24.6,11.9,24.8,11.9c0.3,0,0.7,0,1,0l0,0l0,0
			c0.3,0,0.7,0,1,0c0.2,0,12.2-1.2,24.7-11.8c8.1-6.9,16.3-17.7,21.6-34.601c0.3,0,11,5.4,13.5-22.6
			C178,476,167,478.601,165.8,478.601z"/>
	</g>
	<g>
		<path d="M799.199,641.7L799.199,641.7L799.199,641.7c-0.199-1.1-0.398-2.1-0.799-3.1c-2.6-9.801-8.4-27.7-11-35.7
			c-0.301-1.4-0.801-2.7-1.301-4l0,0l0,0c-1.6-3.5-4.299-6.4-7.5-8.3l0,0C778.4,590.5,778,590.2,777.4,590
			c-0.201-0.1-0.4-0.2-0.701-0.3c-6.398-3-26.1-10.9-26.1-10.9l0,0c-9.9-4.3-20.1-7.899-30.5-11.6l0,0l0,0l0,0l0,0
			c-1.9,7.8-19.5,59.2-22.299,66.3l-2.201-47.8c0.701-1.1,1.301-2.4,1.801-3.7l7.4-14.6c-5.201,4.3-13,7.1-21.701,7.1
			c-8.5,0-16.1-2.6-21.299-6.8L669,582c0.6,1.2,1.1,2.5,1.801,3.7l-2.201,47.8c-2.799-7.1-20.5-58.5-22.299-66.3l0,0l0,0l0,0l0,0
			c-10.4,3.7-20.602,7.4-30.5,11.6l0,0c0,0-19.701,7.9-26.102,10.9c-0.199,0.1-0.398,0.2-0.699,0.3c-0.6,0.3-1,0.5-1.199,0.601l0,0
			c-3.301,2-5.9,4.899-7.5,8.3l0,0l0,0c-0.602,1.3-1,2.6-1.301,4c-2.6,8-8.5,25.899-11,35.7c-0.301,1-0.6,2.1-0.801,3.1l0,0l0,0
			c-0.1,0.9-0.199,1.9-0.199,2.9c0,10.5,8.5,19,19,19h18.199c26,0,52,0,78,0c0.301,0,0.701,0,1,0l0,0c0.301,0,0.701,0,1,0
			c26,0,52,0,78,0H780.4c10.5,0,19-8.5,19-19C799.4,643.601,799.301,642.601,799.199,641.7z"/>
		<path d="M732.801,478.601c0-3.4,0.699-15.601,0.699-18.301c0-27.199-22.1-49.3-49.301-49.3l0,0l0,0h-0.1H684l0,0l0,0
			c-0.301,0-0.6,0-0.9,0c-0.299,0-0.6,0-0.9,0l0,0l0,0h-0.1H682l0,0l0,0c-27.199,0-49.301,22.101-49.301,49.3
			c0,2.801,0.701,15,0.701,18.301c-1.201,0-12.201-2.601-11,10.6c2.5,28,13.199,22.6,13.5,22.6c5.299,16.9,13.4,27.7,21.4,34.5
			c12.5,10.7,24.6,11.9,24.799,11.9c0.301,0,0.701,0,1,0l0,0l0,0c0.301,0,0.701,0,1,0c0.201,0,12.201-1.2,24.701-11.8
			c8.1-6.9,16.299-17.7,21.6-34.601c0.299,0,11,5.4,13.5-22.6C745,476,734,478.601,732.801,478.601z"/>
	</g>
	<path d="M383.1,38.2c-124.2,0-224.8,66.2-224.8,147.8c0,81.6,100.6,147.8,224.8,147.8c1.3,0,2.6,0,3.9,0c0.199,0,0.5,0,0.699,0
		c0.2,0,0.301,0,0.5,0C510,332,607.9,266.6,607.9,186.1C607.9,104.3,507.301,38.2,383.1,38.2z"/>
	<circle cx="383.1" cy="397.4" r="30.4"/>
	<circle cx="607.9" cy="333.7" r="30.4"/>
	<circle cx="185.6" cy="333.7" r="30.4"/>
	<circle cx="653.1" cy="374.4" r="15"/>
	<circle cx="140.2" cy="375.8" r="15"/>
	<g>
		<path d="M499.199,739.3L499.199,739.3L499.199,739.3c-0.199-1.1-0.398-2.1-0.799-3.1c-2.6-9.8-8.4-27.7-11-35.7
			c-0.301-1.399-0.801-2.7-1.301-4l0,0l0,0c-1.6-3.5-4.299-6.399-7.5-8.3l0,0c-0.199-0.1-0.6-0.4-1.199-0.6
			c-0.201-0.101-0.4-0.2-0.701-0.301c-6.398-3-26.1-10.899-26.1-10.899l0,0c-9.9-4.3-20.1-7.9-30.5-11.601l0,0l0,0l0,0l0,0
			c-1.9,7.801-19.5,59.2-22.299,66.301l-2.2-47.801c0.7-1.1,1.3-2.399,1.8-3.699L404.801,665c-5.201,4.3-13,7.101-21.701,7.101
			c-8.5,0-16.1-2.601-21.3-6.801l7.2,14.301c0.6,1.199,1.1,2.5,1.8,3.699l-2.2,47.801c-2.8-7.101-20.5-58.5-22.3-66.301l0,0l0,0l0,0
			l0,0c-10.4,3.7-20.601,7.4-30.5,11.601l0,0c0,0-19.7,7.899-26.1,10.899c-0.2,0.101-0.4,0.2-0.7,0.301c-0.6,0.3-1,0.5-1.2,0.6l0,0
			c-3.3,2-5.9,4.9-7.5,8.3l0,0l0,0c-0.6,1.3-1,2.601-1.3,4c-2.6,8-8.5,25.9-11,35.7c-0.3,1-0.6,2.1-0.8,3.1l0,0l0,0
			c-0.1,0.9-0.2,1.9-0.2,2.9c0,10.5,8.5,19,19,19h18.2c26,0,52,0,78,0c0.301,0,0.7,0,1,0l0,0c0.301,0,0.7,0,1,0c26,0,52,0,78,0
			H480.4c10.5,0,19-8.5,19-19C499.4,741.2,499.301,740.2,499.199,739.3z"/>
		<path d="M432.801,576.2c0-3.4,0.699-15.6,0.699-18.3c0-27.2-22.1-49.3-49.3-49.3l0,0l0,0h-0.1H384l0,0l0,0c-0.301,0-0.601,0-0.9,0
			s-0.6,0-0.9,0l0,0l0,0h-0.1H382l0,0l0,0c-27.2,0-49.301,22.1-49.301,49.3c0,2.8,0.7,15,0.7,18.3c-1.2,0-12.2-2.6-11,10.6
			c2.5,28,13.2,22.601,13.5,22.601c5.3,16.899,13.4,27.7,21.4,34.5c12.5,10.7,24.6,11.899,24.8,11.899c0.3,0,0.7,0,1,0l0,0l0,0
			c0.3,0,0.7,0,1,0c0.2,0,12.2-1.199,24.701-11.8c8.1-6.899,16.299-17.7,21.6-34.6c0.299,0,11,5.399,13.5-22.601
			C445,573.601,434,576.2,432.801,576.2z"/>
	</g>
</g>
<g>
</g>
<g>
</g>
<g>
</g>
<g>
</g>
<g>
</g>
<g>
</g>
<g>
</g>
<g>
</g>
<g>
</g>
<g>
</g>
<g>
</g>
<g>
</g>
<g>
</g>
<g>
</g>
<g>
</g>
</svg>
